<svg xmlns="http://www.w3.org/2000/svg" viewBox="0 0 296.82 109.79"><defs><style>.cls-1{fill:#0ae349;}.cls-2{fill:#09e348;}.cls-3{fill:#21c151;}.cls-4{fill:#25bd4d;}.cls-5{fill:#4dbb69;}.cls-6{fill:#57b766;}.cls-7{fill:#31bb5a;}</style></defs><g id="Layer_2" data-name="Layer 2"><g id="Layer_1-2" data-name="Layer 1"><path class="cls-1" d="M34.47,33A91.1,91.1,0,0,0,25,63.61,35.84,35.84,0,0,0,26.6,79.75c2.72,7.87,11.2,7.38,17.87,1.23A19.25,19.25,0,0,0,48,75.61c1.64-3.14,2.25-5.82-3-5.53-3.58.2-4.12-1.89-3.26-4.92s2.15-6.41,2.27-9.65c.19-5.53,3.17-6.33,7.79-6.22,10,.22,20,.17,30,0,3.89,0,5.14,1.25,3.92,5.08-.91,2.83-1.37,5.8-2,8.71-.87,3.84-1.13,8.14-7.06,7.22C74.85,70.05,74.52,72,74,73.42,71,81.85,67.63,90,61.63,97c-12.47,14.48-36,15.48-46.65,8.09S.32,86.76,0,74.58C-.43,54.41,3.8,35.24,16,18.66,26.27,4.59,40.17-1.92,57.85,1,68.24,2.77,77.21,13.05,78.64,25c1.62,13.49,4,12.8-11.34,12.74h-2c-3.16-.06-6.65.69-9.39-.41C52.77,36,54,31.75,52.71,29a41.77,41.77,0,0,0-2.26-3.8c-6.54-3.9-11.79.17-15.52,6.9A4.23,4.23,0,0,1,34.47,33Z"/><path class="cls-2" d="M130.09,100.73c-10.3,8.53-22.06,10.73-34.89,7.9-6.18-1.37-11.35-4.46-14.79-10-1.23-3.33-2-6.86-4.13-9.81C74.75,73,74.87,76.38,87.51,76.05c1.83,0,3.66,0,5.49-.06,4.39-.21,8.29-.39,7.72,6.18-.27,3.17,2.3,5.64,5.86,5.41s5.53-2.42,5.86-6.18C113.16,73,107.53,68,102.3,63,94,54.93,87.36,45.8,86.66,33.9,85.59,15.61,100.29.47,118.86,0c9.36-.22,18.38.94,25,8.45,5.57,6.27,7.38,13.9,6.83,22.17-.16,2.47-1.72,3-3.73,3l-17,0c-2.4,0-3.57-1-3.74-3.58-.19-3-.9-6-4.25-7.23-2.48-.9-5.22-.73-7,1a7.55,7.55,0,0,0-2.14,7.76c1.77,6.37,6,11,10.59,15.39,6.32,6.06,11.77,12.57,14.09,21.32,1.44,5.45.12,10.93.83,16.36-1.41,2.55.18,5.36-1,8.18C135.76,96.53,132.66,98.28,130.09,100.73Z"/><path class="cls-3" d="M34.47,33c.19-5.3,4.23-7.69,8.11-9.56,2.45-1.19,5.88-1.52,7.87,1.8C42.7,22.81,38.49,27.7,34.47,33Z"/><path class="cls-4" d="M76.28,88.82c3.68,2.3,4.29,5.9,4.13,9.82C77.74,95.91,76.71,92.49,76.28,88.82Z"/><path class="cls-2" d="M209.5,1.93c-8.15.21-16.33.3-24.47-.08-4.07-.18-6,1.47-7.49,4.9-4.34,10-8.81,20-13.33,30q-11.84,26.07-23.79,52.09c-4.09,3.55-5.25,8.38-5.84,13.46-1.87,5.41-1.85,5.46,3.94,5.48s11.66-.1,17.48,0c2.35,0,4-.71,4.41-3,1.58-8.81,7.09-11.37,15.29-9.92a21.5,21.5,0,0,0,3.5,0c8.86,0,9,0,9.12,9,0,3.14,1.15,4,4.09,3.94,5.82-.15,11.66-.16,17.48,0,3.35.1,4.71-1,4.71-4.54q.09-48,.52-95.91C215.15,3.1,213.53,1.83,209.5,1.93ZM191.35,45.18c-1.34,3-.87,6.22-.93,9.37-.08,3.83,0,7.66-.14,11.49-.17,4.19-1.74,6.42-6.7,6.22-9.88-.38-9.82-.05-6-9.31,3.7-8.87,7.2-17.81,10.84-26.7.73-1.78,1-3.87,3-4.94A38.71,38.71,0,0,1,191.35,45.18Z"/><path class="cls-5" d="M191.35,45.18q0-6.93.08-13.87A19.34,19.34,0,0,1,191.35,45.18Z"/><path class="cls-2" d="M235,87.69c1,.6,1.94,1.21,2.92,1.79,7,4.09,8.35,9.44,4.4,16.62-.79,1.44-2,1.63-3.35,1.63-6,0-12,0-18,0-2.85,0-3.69-1.08-3-4,3.14-13.54,6-27.15,9.1-40.71,3.76-16.63,7.44-33.29,11.5-49.84C241.85,0,239,2.05,252,2c7.6,0,15.18-.2,22.73,1.74,17.18,4.42,22.84,18.9,22,33.83-.68,12.43-4.61,23.77-12.91,33.08a45.43,45.43,0,0,1-30.37,15.21c-6.05.58-12.16.63-18.23.92ZM271.16,31.3c-1.3-2.23-1.85-5.3-4.83-5.91-5.91-1.21-11.83-.54-17.77.1a16.68,16.68,0,0,0,5.5,3.73c4.94,1.74,4.95,5,3.78,9.32-1.84,6.85-3,13.89-4.81,20.76-1,3.79.49,4.09,3.46,3.33,4.26-1.07,7.27-3.66,9.7-7.26,2.87-4.23,3.46-9.24,5.2-13.85C271.94,38.1,272.51,34.68,271.16,31.3Z"/><path class="cls-6" d="M271.39,41.52q-.12-5.1-.23-10.22A10.3,10.3,0,0,1,271.39,41.52Z"/><path class="cls-7" d="M282.49,99.3c-1.78-3.74-4.11-4.43-7.76-2.29v0h0c-4.64.24-4.54,3.42-3.74,6.56,1,3.86,4.92,5.56,8.61,4.06C282.33,106.49,283.84,102.15,282.49,99.3Z"/></g></g></svg>