<svg xmlns="http://www.w3.org/2000/svg" viewBox="0 0 349.74 312.45"><defs><style>.cls-1{fill:#61d9fa;}</style></defs><g id="Layer_2" data-name="Layer 2"><g id="Layer_1-2" data-name="Layer 1"><path class="cls-1" d="M339.07,130.76a70.27,70.27,0,0,0-11.91-10.61c-14.08-10.15-30-16.44-46.41-21.46-3.16-1-4.13-1.81-3.25-5.38a172.94,172.94,0,0,0,5.31-39.48,83.24,83.24,0,0,0-2-20.83C277.22,17.71,270,5.38,253.51,1.14c-8.82-2.27-17.51-.92-26,2-16.69,5.73-30.56,16-43.73,27.35-2.9,2.49-5.5,6.9-8.58,7.22-3.53.37-6-4.56-9-7.11C151.93,18.45,137.05,7.29,118.68,2,95.57-4.57,77.38,5.21,70.33,28a75.94,75.94,0,0,0-2.43,11.7c-2.58,18.11.27,35.85,4.33,53.42.89,3.83-.14,4.69-3.47,5.68a174.94,174.94,0,0,0-31.93,12.68c-11.28,6-21.79,12.92-29.4,23.44-9.92,13.72-9.88,28.9,0,42.66a59.23,59.23,0,0,0,11.4,11.84c14.7,11.7,31.72,18.69,49.47,24.09,3.56,1.08,4.88,2.07,3.89,6.36-4.49,19.55-7.36,39.26-3.21,59.33,5.58,27,25.78,38.91,52.09,30.51,17-5.42,31-15.79,44.37-27.19,3.15-2.68,6.08-7.3,9.42-7.6s6.23,4.82,9.37,7.47c14.58,12.32,29.76,23.62,48.65,28.5,21.84,5.65,39-3.82,46.22-25.22A68.93,68.93,0,0,0,281.9,273c2.48-18.13-.23-35.87-4.32-53.43-1-4.13.29-5.09,3.72-6a166.38,166.38,0,0,0,26.55-10c11.35-5.38,22-11.8,30.62-21.14C353.29,166.31,353.5,147.16,339.07,130.76ZM187.37,47.4c12.09-11.26,24.73-21.72,40-28.43a47.24,47.24,0,0,1,13.38-3.74c11.05-1.33,18.63,2.95,23.07,13.16,2.79,6.43,4.07,14.32,4.06,24.91-.09,12.52-2.15,24.78-4.88,37-.63,2.83-1.53,3.38-4.34,2.73a327,327,0,0,0-40.83-6.38,5.58,5.58,0,0,1-4.41-2.6A338.77,338.77,0,0,0,187.51,51.8C186,50.18,185.48,49.16,187.37,47.4ZM102.71,173.57c6.78,12.85,13.31,24.13,20.66,36-8.46-.29-16-2.07-23.48-3.41-8.52-1.52-8.56-1.7-5.6-10C96.84,189,99.58,182,102.71,173.57Zm-10.59-64c-.53-1.63.91-1.79,2.09-2,9.41-2,18.88-3.72,29.28-4.9-7.17,11.86-14,23.17-20.48,35.82C98.31,128.57,95.21,119.06,92.12,109.55Zm20.31,50.21a6.81,6.81,0,0,1-.12-6.9,476.39,476.39,0,0,1,28.44-49.21c1.57-2.37,3.31-3.15,6.05-3.32a433.4,433.4,0,0,1,56.41,0,6.42,6.42,0,0,1,5.66,3.1,472.54,472.54,0,0,1,28.7,49.63,6.42,6.42,0,0,1-.1,6.47A466,466,0,0,1,209,208.74c-1.56,2.34-3.31,3.49-6.07,3.47-9.32-.05-18.64,0-28,0v0c-9.32,0-18.64,0-28,0-3,0-4.79-1.19-6.45-3.7A460.61,460.61,0,0,1,112.43,159.76Zm134.36,14.33c4.61,9.61,7.57,19,10.78,28.26.69,2-.62,2.26-1.95,2.55a242.54,242.54,0,0,1-29.36,4.8C233.8,197.67,240.28,186.37,246.79,174.09Zm-20.52-71.48c10.37,1.18,19.83,2.92,29.26,4.87,1.9.39,2.56,1,1.89,3-3.06,9.1-6.18,18.17-10.56,28C240.2,125.83,233.5,114.44,226.27,102.61ZM173.46,61.72c1.34-1.49,2.25-.68,3.22.41a284.86,284.86,0,0,1,18.49,22.5H154.56A295.08,295.08,0,0,1,173.46,61.72ZM84.59,32.09C89.26,17.68,98.78,12.36,113.45,16c11,2.73,20.48,8.53,29.53,15.09a203.84,203.84,0,0,1,19.09,16c1.86,1.72,2,2.78.17,4.77a326.52,326.52,0,0,0-26,32.2,5.58,5.58,0,0,1-4.43,2.56A327,327,0,0,0,91,93c-2.87.65-3.68,0-4.3-2.8C84,78.2,82,66.1,81.87,53.75A64.76,64.76,0,0,1,84.59,32.09ZM78.26,197.27c-.68,2.11-1,3.53-4,2.6C59.8,195.35,45.72,190,33,181.5a51.76,51.76,0,0,1-13.18-12.08,22.65,22.65,0,0,1-4.91-13.89c.22-5.79,3.16-10.9,7.29-15.42,6.5-7.12,14.59-12,23.1-16.31a194.49,194.49,0,0,1,27.8-10.89c2.85-.92,4.31-.81,5.34,2.58A298.64,298.64,0,0,0,93,153.11a6.61,6.61,0,0,1,0,6.1A343.59,343.59,0,0,0,78.26,197.27Zm84.13,67.84c-12.32,11.28-25,22-40.61,28.56a41.2,41.2,0,0,1-14.9,3.73c-10.44.31-16.9-3.83-21-13.53-3.36-8-4.14-16.38-4-24.94.1-12.37,2.19-24.46,4.79-36.53.72-3.33,2.15-3.46,4.78-2.88a307.34,307.34,0,0,0,39.91,6.17,6.73,6.73,0,0,1,5.3,3.13A318.94,318.94,0,0,0,162,260.3C163.39,261.84,164.68,263,162.39,265.11ZM183.05,243c-8.1,9.66-8.16,9.66-16.38-.07-3.75-4.45-7.35-9-11-13.57a10.44,10.44,0,0,1-.83-1.93c13.57.52,26.52.6,40.89-.08C191.05,233.16,187.12,238.15,183.05,243Zm81.38,39.58c-4.54,12-13.54,16.82-26.11,14.29-9-1.8-16.92-5.88-24.53-10.71-9.3-5.91-17.63-13.07-25.77-20.46-2.28-2.07-2.27-3.33-.2-5.55a286.47,286.47,0,0,0,25.07-31.05A7.69,7.69,0,0,1,219,225.6a283.79,283.79,0,0,0,38.91-6c3.21-.73,4.57-.14,5.31,3.43,2.49,11.91,4.6,23.84,4.67,38.4A57.45,57.45,0,0,1,264.43,282.6Zm63.12-110.27c-5.21,5.74-11.53,10-18.25,13.75a173.49,173.49,0,0,1-33.14,13.56c-2.49.76-3.7.88-4.63-2.14a337,337,0,0,0-14.83-38.56,5.62,5.62,0,0,1-.16-5.16,338.11,338.11,0,0,0,15-39c.74-2.36,1.73-2.89,3.89-2.21,15.74,5,31.11,10.73,44.5,20.72a43.8,43.8,0,0,1,11.08,11.39,21.88,21.88,0,0,1,3.77,12.42C334.6,162.69,331.67,167.79,327.55,172.33Z"/><path class="cls-1" d="M174.9,187.51a31.34,31.34,0,1,0-31.21-31.39A31,31,0,0,0,174.9,187.51Z"/></g></g></svg>