<?xml version="1.0" standalone="no"?>
<!DOCTYPE svg PUBLIC "-//W3C//DTD SVG 20010904//EN"
 "http://www.w3.org/TR/2001/REC-SVG-20010904/DTD/svg10.dtd">
<svg version="1.0" xmlns="http://www.w3.org/2000/svg"
 width="700.000000pt" height="700.000000pt" viewBox="0 0 700.000000 700.000000"
 preserveAspectRatio="xMidYMid meet">
<metadata>
Created by potrace 1.14, written by Peter Selinger 2001-2017
</metadata>
<g transform="translate(0.000000,700.000000) scale(0.100000,-0.100000)"
fill="#000000" stroke="none">
<path d="M1229 6996 c-2 -2 -26 -6 -54 -10 -70 -8 -128 -20 -205 -41 -49 -13
-143 -50 -215 -85 -293 -142 -522 -385 -650 -689 -46 -108 -74 -209 -93 -336
-4 -27 -7 -1047 -7 -2265 l0 -2215 269 0 270 0 0 1343 0 1342 180 0 c1129 2
1960 -1 1964 -5 3 -3 6 -623 6 -1378 l1 -1372 28 -57 c31 -64 71 -102 136
-131 144 -64 315 23 362 185 14 49 12 5461 -2 5513 -28 100 -77 154 -172 187
-48 16 -112 17 -933 17 -485 0 -883 -1 -885 -3z m1445 -552 c9 -8 16 -23 17
-32 4 -60 3 -1922 -1 -1923 -7 -1 -2067 -1 -2111 0 l-36 1 2 643 c2 623 3 644
24 722 60 221 194 396 381 499 83 45 135 64 240 86 77 16 152 18 777 19 617 1
693 -1 707 -15z"/>
<path d="M1575 5922 c-230 -14 -445 -204 -486 -427 -24 -125 -12 -224 39 -335
134 -292 505 -402 774 -228 71 46 94 67 142 132 78 104 107 201 102 345 -3
103 -8 121 -52 218 -18 40 -77 119 -115 155 -98 92 -264 149 -404 140z"/>
<path d="M3980 5920 c-82 -15 -152 -76 -190 -165 -20 -46 -20 -85 -21 -2658
-1 -1437 -1 -2666 -1 -2732 0 -96 5 -131 21 -175 25 -66 83 -129 149 -162 l47
-23 860 1 c473 0 889 2 925 4 147 8 321 58 485 140 360 180 613 498 710 895 4
17 9 39 10 50 2 11 7 34 11 50 4 17 9 1043 10 2281 3 2112 2 2252 -14 2256 -9
2 -131 4 -271 3 l-255 0 -1 -2220 c-1 -1701 -4 -2232 -14 -2270 -55 -230 -159
-388 -333 -508 -94 -65 -221 -116 -333 -133 -22 -3 -352 -7 -733 -9 -650 -2
-695 -1 -715 16 l-22 17 0 2569 0 2568 -27 55 c-58 119 -168 174 -298 150z"/>
<path d="M5325 5101 c-85 -22 -151 -76 -184 -151 -26 -59 -31 -98 -20 -154 19
-101 76 -172 166 -206 104 -39 207 -17 283 59 162 162 64 437 -162 456 -29 2
-66 0 -83 -4z"/>
<path d="M5871 4569 c-174 -33 -268 -227 -187 -387 69 -136 246 -188 374 -110
118 72 165 222 108 343 -51 111 -177 176 -295 154z"/>
<path d="M4771 4548 c-155 -41 -238 -226 -166 -373 101 -207 394 -202 486 8
90 207 -99 423 -320 365z"/>
<path d="M5281 4011 c-101 -41 -164 -135 -164 -244 1 -94 35 -160 114 -220
158 -120 399 -8 416 192 17 200 -182 347 -366 272z"/>
<path d="M5283 2685 c-75 -14 -192 -71 -251 -122 -43 -36 -116 -133 -139 -183
-32 -69 -45 -130 -45 -213 1 -48 3 -96 7 -106 3 -11 8 -28 10 -38 15 -74 75
-180 136 -244 186 -190 495 -209 709 -43 61 47 72 59 116 124 27 40 37 62 76
160 18 46 17 200 -1 270 -74 275 -343 447 -618 395z"/>
</g>
</svg>
