<svg xmlns="http://www.w3.org/2000/svg" viewBox="0 0 137.07 43.14"><defs><style>.cls-1{fill:#fbfbfc;}.cls-2{fill:#fff;}</style></defs><title>Asset 1</title><g id="Layer_2" data-name="Layer 2"><g id="Layer_1-2" data-name="Layer 1"><path class="cls-1" d="M68.29,43.09c-21.76,0-43.53,0-65.29,0-2.37,0-3-.66-3-3Q.17,21.54,0,3C0,.55.76,0,3.05,0Q68.46.09,133.88.05C137,.05,137,.08,137,3.2c0,12.39,0,24.78,0,37.17,0,2.15-.59,2.77-2.75,2.76C112.31,43.06,90.3,43.09,68.29,43.09Zm-44-3.92c6.11,0,12.23-.05,18.34,0,1.52,0,1.92-.43,1.91-1.93q-.09-15.53,0-31.05c0-1.56-.48-1.89-1.94-1.89q-18.46.07-36.92,0c-1.55,0-1.89.47-1.88,1.93q.09,15.54,0,31.06c0,1.5.39,1.91,1.9,1.89C11.88,39.11,18.07,39.17,24.27,39.17Zm80-15.55c-2.64-2.21-4.12-4.76-6.06-6.92A2.15,2.15,0,0,0,96,16.09c-1,.11-.58,1-.59,1.54,0,2.93,0,5.85,0,8.78,0,.82.06,1.43,1.14,1.37s.79-.83.8-1.4c0-2.07,0-4.13,0-6.19l.6-.27c.48.61,1,1.22,1.46,1.82,1.5,1.79,3,3.54,4.48,5.38a1.62,1.62,0,0,0,1.92.57c.79-.2.46-.94.47-1.44,0-3,0-6,0-9,0-.76-.12-1.2-1-1.21s-1.05.39-1,1.19C104.29,19.21,104.25,21.21,104.25,23.62Zm-27,0a13.22,13.22,0,0,1-1.21-1c-1.64-1.89-3.34-3.73-4.83-5.72a2,2,0,0,0-2.32-.8c-1.18.23-.5,1.2-.52,1.79-.08,2.84,0,5.69,0,8.53,0,.63-.15,1.33.88,1.35s.92-.64.92-1.3c0-2.22,0-4.44,0-6.89a54,54,0,0,1,6.58,7.56,1.72,1.72,0,0,0,1.89.58c.87-.12.48-.89.49-1.38,0-3,0-6,0-9,0-.71,0-1.27-.93-1.28s-1,.53-1,1.24C77.28,19.23,77.26,21.18,77.26,23.64Zm15.85,4c-1.5-3.6-3-7-4.31-10.45-.32-.83-.67-1.19-1.53-1.12-.71.06-1.33-.07-1.69.92C84.3,20.5,82.87,24,81.49,27.53c1.29.5,2.13.35,2.42-1.05.32-1.56,1.5-1.67,2.79-1.55s3.11-.6,3.6,1.46C90.67,28,91.64,28,93.11,27.6ZM122.33,22c.19,1.57-.85,4.11.42,5.23,1.08.95,3.56.3,5.42.34,1,0,2,0,2.93,0,.56,0,1.14.12,1.2-.75s-.49-1-1.21-1c-1.47,0-2.93,0-4.4,0-1.16,0-2.38.39-2.35-1.69s1.4-1.49,2.47-1.57a16,16,0,0,1,2.19,0c.73,0,.77-.42.76-.93s-.07-.9-.81-.83c-1,.1-2,0-2.92.05-1.3.13-1.67-.37-1.66-1.64s.45-1.54,1.58-1.49c1.78.08,3.58,0,5.37.07.86,0,.92-.35.91-1s-.14-.87-.84-.82c-1.13.08-2.28,0-3.42,0C122.33,16.09,122.33,16.09,122.33,22ZM115,16c-3.51,0-5.73,1.37-6.42,3.74-.9,3.07-.19,5.55,2,6.93,2.42,1.56,6.77,1.44,8.8-.23.38-.31.88-.58.42-1.14a1.23,1.23,0,0,0-1.56-.28,7.47,7.47,0,0,1-3.48,1c-2.76,0-4.38-1.49-4.44-4.06-.06-2.73,1.59-4.29,4.49-4.25a5.16,5.16,0,0,1,3,.86c.92.65,1.23.09,1.63-.58.64-1.08-.43-1.05-.87-1.24A7.71,7.71,0,0,0,115,16ZM52.12,21.83H52v4.4c0,.8-.19,1.6,1.14,1.58s1-1,1-1.69c.07-3.33.07-3.33,3.5-3.47h.49c.67.06,1.06-.14,1-.93s-.5-.87-1.12-.86c-.81,0-1.63-.05-2.44,0-1.26.12-1.47-.55-1.49-1.61s.31-1.62,1.52-1.55c1.55.09,3.1,0,4.65,0,.69,0,1.32,0,1.27-1S60.93,16,60.36,16c-.9,0-1.8,0-2.69,0-1.85.09-4.38-.81-5.36.38S52.12,20,52.12,21.83Zm13.67.08c0-1.63-.06-3.25,0-4.88,0-1-.54-1-1.22-1s-1,.14-1,1c.07,3.17.06,6.34,0,9.51,0,.95.27,1.28,1.23,1.29s.94-.57.93-1.26C65.77,25,65.79,23.45,65.79,21.91Z"/><path class="cls-2" d="M14.14,21.32A7.19,7.19,0,0,1,17,30.83a3.94,3.94,0,0,1-3.42,2.43c-1.95.11-3.9.07-5.86.07-.37,0-.87.11-1-.43s.27-.71.67-.83c1.16-.36,1-1.34,1-2.21q0-8.07,0-16.13A2.66,2.66,0,0,0,8,11.89c-.39-.47-1.54-.44-1.23-1.23.36-1,1.42-.4,2.17-.49s1.31,0,2,0c2.23-.06,4.51-.2,5.58,2.4a8.25,8.25,0,0,1-1.66,8.14Zm-3.53,5.25h0c0,1.22-.09,2.44,0,3.64a1.86,1.86,0,0,0,3.1,1.47c2.1-1.45,2-7.84-.18-9.23a2.85,2.85,0,0,0-2.56-.3c-.72.27-.36,1.14-.4,1.75C10.58,24.79,10.61,25.68,10.61,26.57Zm0-10.69c0,1,0,2.11,0,3.17,0,.58-.34,1.43.63,1.58s2,.17,2.38-.77a10,10,0,0,0,.4-7.14,2.22,2.22,0,0,0-2.58-1.41c-1.48.17-.7,1.38-.82,2.13A15.25,15.25,0,0,0,10.61,15.88Z"/><path class="cls-2" d="M29.62,26.42c-1.22-.93-.67-2-1-2.91a2.15,2.15,0,0,0-2.28-1.44c-1.39,0-.93,1.08-.95,1.78-.06,1.95,0,3.91,0,5.86,0,1-.13,2,1.2,2.32a.68.68,0,0,1,.57.9c-.16.5-.62.45-1,.45-1.3,0-2.61,0-3.91,0-.38,0-.85.05-1-.48a.71.71,0,0,1,.61-.89c1.42-.38,1.24-1.53,1.24-2.57,0-5.13,0-10.26,0-15.39,0-1,.05-2-1.1-2.47-.41-.18-1-.38-.71-1s.81-.43,1.27-.43c2.61,0,5.21,0,7.82,0,1.12,0,1.64.33,1.58,1.53-.08,1.44,0,2.88,0,4.45-1.37-.21-1.22-1.2-1.34-1.88-.39-2.11-1.49-3.06-3.72-2.9-1.14.09-1.58.36-1.53,1.53.07,2,0,4.07,0,6.1,0,.64-.38,1.56.79,1.72a2,2,0,0,0,2.14-1.09c.51-.83.22-1.95,1.33-2.83Z"/><path class="cls-2" d="M41.46,10.58C38.94,11.78,39.6,14,39.59,16q0,6.84,0,13.69c0,.78-.24,1.66.67,2.19.44.26,1.37.08,1.21.89s-1.07.47-1.65.52a14.2,14.2,0,0,1-2.44,0c-.67-.06-1.66.42-2-.41s.81-.74,1.29-1c.79-.5.61-1.27.61-2,0-5.38-.08-10.76.06-16.14.05-1.69-1-2.17-2-3.17Z"/><path class="cls-2" d="M85.4,22.57l1.61-4,1.66,3.94A6.23,6.23,0,0,1,85.4,22.57Z"/></g></g></svg>