<svg xmlns="http://www.w3.org/2000/svg" viewBox="0 0 184.8 284.9"><defs><style>.cls-1{fill:none;}.cls-2{fill:#fff;}</style></defs><title>Asset 20</title><g id="Layer_2" data-name="Layer 2"><g id="New_Layer" data-name="New Layer"><path class="cls-1" d="M130.17,143.11a6.29,6.29,0,1,0,0-12.57h0a6.29,6.29,0,1,0,0,12.57Z"/><path class="cls-1" d="M38.11,61.51c-4.7-5-11.15-9.92-14.95-7.42a6.73,6.73,0,0,0-1.56,1.52,2.19,2.19,0,0,0,.08,2.7C23,60.09,29.25,61.11,38.11,61.51Z"/><path class="cls-1" d="M51.68,143.43a6.29,6.29,0,0,0,6.28-6.3h0a6.27,6.27,0,0,0-6.28-6.26h0a6.27,6.27,0,0,0-6.27,6.27h0A6.29,6.29,0,0,0,51.68,143.43Z"/><path class="cls-1" d="M172,52.56h0c.43-.63,0-2.16-1.67-3.13-2.94-2.51-8.9,1-13.4,4.67C164.47,54.71,170.67,54.56,172,52.56Z"/><path class="cls-1" d="M125.06,44a45.71,45.71,0,0,0,11.8,5.92c-2.61-5.2-6.63-10.82-10.35-9.74a3.32,3.32,0,0,0-1.65,1A2.13,2.13,0,0,0,125.06,44Z"/><path class="cls-1" d="M130.21,155.29a6.28,6.28,0,0,0-6.28,6.28h0a33,33,0,0,1-65.95,0h0a6.28,6.28,0,0,0-12.56,0,45.54,45.54,0,0,0,45.53,45.55h0a45.56,45.56,0,0,0,45.57-45.55A6.29,6.29,0,0,0,130.21,155.29Z"/><path class="cls-1" d="M72.06,45.87c0-.3-.61-.84-1.55-1.3a6.56,6.56,0,0,0-2-.65c-4.43-.53-7.95,6.61-9.93,13C66.19,52.74,72,48.07,72.06,45.87Z"/><path class="cls-2" d="M134.32,59.91Z"/><path class="cls-2" d="M91.57,54.09l-14,3.1a56.43,56.43,0,0,1-11.32,8.28l7.32,33.14,32.3-1.92L97.28,57.74h0A4.81,4.81,0,0,0,91.57,54.09Z"/><path class="cls-2" d="M74.68,31.91l14-8a7.16,7.16,0,0,0,11.76-1.35L116,27.67a67.29,67.29,0,0,0,.07-11.24h0A65.65,65.65,0,0,0,113.76,5.5L98.82,13.9A7,7,0,0,0,94,12.07a7.12,7.12,0,0,0-5.6,2.76l-16-5.1a58,58,0,0,0-.5,11.76A42.33,42.33,0,0,0,74.68,31.91Z"/><path class="cls-2" d="M102.11,28.54a12.22,12.22,0,0,1-13.87,1.54l-10.1,5.77a12,12,0,0,1,5.36,10A12.22,12.22,0,0,1,82.24,51l8.26-1.83a9.62,9.62,0,0,1,2.14-.24,9.9,9.9,0,0,1,7.77,3.85l.7-2.72a10,10,0,0,1,9.75-7.6,10.23,10.23,0,0,1,2.46.3l.2,0a11.33,11.33,0,0,1,4.3-9.13l-15.7-5.1Z"/><path class="cls-2" d="M124.46,95.55l9.86-35.64c-9.6-3.18-15.94-7-18.89-11.41l-3.4-.86a5,5,0,0,0-6,3.6l-2.63,10.43L111,96.35Z"/><path class="cls-2" d="M140.36,56.46a5.46,5.46,0,0,0,10.16,2.08l.2,0c5,.76,21.58,2.8,25.58-3.1.95-1.4,1.67-3.8-.32-7.18h0a10.38,10.38,0,0,0-2.27-2.76c-7.6-6.5-19.27,3.6-23.23,7.48a5.51,5.51,0,0,0-3.36-2.5,5.42,5.42,0,0,0-4.07.57c-2.26-5.5-8.66-18.54-18-15.8a10.67,10.67,0,0,0-3.2,1.6c-3.2,2.3-3.5,4.77-3.2,6.43C119.88,50.13,135.09,55,140.36,56.46Zm30-7c1.63,1,2.1,2.5,1.67,3.13h0c-1.36,2-7.56,2.15-15.08,1.54C161.45,50.42,167.41,46.92,170.35,49.43Zm-45.49-8.21a3.32,3.32,0,0,1,1.65-1c3.72-1.08,7.74,4.54,10.35,9.74A45.71,45.71,0,0,1,125.06,44,2.13,2.13,0,0,1,124.86,41.22Z"/><path class="cls-2" d="M162.5,64.6a82,82,0,0,1-8.55-.5L145.6,94.3l31.06-1.83.24,0c.22,0,.45,0,.67.06l5.5-21.9a5,5,0,0,0-3.6-6v0l-5.9-1.5A35.66,35.66,0,0,1,162.5,64.6Z"/><path class="cls-2" d="M8.86,102.52a10.25,10.25,0,0,1,1.46-.2l31.58-1.84-6.18-27.9v0A55.42,55.42,0,0,1,20.3,69.82L7.22,72.72a4.79,4.79,0,0,0-3.66,5.72Z"/><path class="cls-2" d="M79.82,6.79h0l7.3,2.33A12.09,12.09,0,0,1,94,7a12.24,12.24,0,0,1,5,1l6.6-3.7.3-1.25c1.23-5.73-6.6.27-7.24.78A6.19,6.19,0,0,0,86.75,5.17s0,0,0,0S76.87.45,79.42,6Z"/><path class="cls-2" d="M44.76,67.63l1.43,0a5.41,5.41,0,0,0,4.35,1A5.31,5.31,0,0,0,54,66l1.37-.63c5.38-2.5,22.94-11.25,23-19.63,0-2-.82-4.78-5-6.83h0a12.86,12.86,0,0,0-4-1.23c-10.9-1.33-15.87,13.84-17.6,21a5.2,5.2,0,0,0-3.55-.47,5.29,5.29,0,0,0-3.13,2c-4.63-5.6-16-17.35-25.27-11.25a12.37,12.37,0,0,0-3.06,2.88c-2.8,3.68-2.32,6.56-1.42,8.32C19.2,67.69,38.83,67.76,44.76,67.63ZM71.18,49.44l.28-.22ZM58.56,56.93h0c2-6.4,5.5-13.54,9.93-13a6.56,6.56,0,0,1,2,.65c.94.46,1.55,1,1.55,1.3,0,2.2-5.87,6.87-13.5,11.06h0Zm-37-1.32a6.73,6.73,0,0,1,1.56-1.52c3.8-2.5,10.25,2.46,15,7.42-8.86-.4-15.1-1.42-16.43-3.2A2.19,2.19,0,0,1,21.6,55.61Z"/><path class="cls-2" d="M58.56,56.93h0Z"/><path class="cls-2" d="M184.76,278.09c-8.86-39.95-14.63-113.3-2.06-175a6.38,6.38,0,0,0-6-6l-166,9.8a6.34,6.34,0,0,0-5.95,6.32c0,.14,0,.26,0,.4,6.47,37.58,8.65,103.8-4.7,165.37a6.27,6.27,0,0,0,5.18,6H179.46a6.37,6.37,0,0,0,5.34-6.27c0-.2,0-.37,0-.55ZM130.17,130.54h0a6.29,6.29,0,1,1-6.3,6.28A6.29,6.29,0,0,1,130.18,130.54ZM45.4,137.13a6.27,6.27,0,0,1,6.27-6.27h0A6.27,6.27,0,0,1,58,137.12h0a6.28,6.28,0,1,1-12.56,0Zm45.54,70h0A45.54,45.54,0,0,1,45.4,161.57a6.28,6.28,0,0,1,12.56,0h0a33,33,0,0,0,66,0h0a6.29,6.29,0,0,1,12.58,0A45.56,45.56,0,0,1,90.94,207.12Z"/></g></g></svg>