<svg xmlns="http://www.w3.org/2000/svg" viewBox="0 0 296.03 240.68"><defs><style>.cls-1,.cls-3{fill:none;}.cls-1{stroke:#fff;}.cls-1,.cls-2{stroke-miterlimit:10;}.cls-2{fill:silver;stroke:silver;}.cls-4{fill:#fff;}</style></defs><title>Asset 8</title><g id="Layer_2" data-name="Layer 2"><g id="Layer_1-2" data-name="Layer 1"><line class="cls-1" x1="221.44" y1="0.4" x2="295.74" y2="54.78"/><line class="cls-2" x1="72.45" y1="240.68" x2="72.45" y2="157.15"/><line class="cls-3" y1="54.79" y2="0.09"/><path class="cls-4" d="M147.18,55.82a3.82,3.82,0,0,0-.76-2.27L106.86.08,37.49.26.68,53.72A3.9,3.9,0,0,0,0,55.9V236.68a4.12,4.12,0,0,0,4.23,4h64.3a4.12,4.12,0,0,0,4.23-4v-78a3.9,3.9,0,0,1,1.54-3.09l71.54-55.71a3.92,3.92,0,0,0,1.54-3.1ZM69.65,70.09H54.72V56H69.65Zm0-17.06H54.72V38.91H69.65Zm19.9,17.06H74.62V56H89.55Zm0-17.06H74.62V38.91H89.55Z"/><path class="cls-4" d="M295.25,53.59,257.55,1.82A4.28,4.28,0,0,0,254.07.09H189a4.31,4.31,0,0,0-3.49,1.74L148.11,53.66a3.86,3.86,0,0,0-.73,2.26V96.8a3.91,3.91,0,0,0,1.51,3.07l71,56.09a3.93,3.93,0,0,1,1.52,3.07v77.65a4.12,4.12,0,0,0,4.23,4h66.16a4.12,4.12,0,0,0,4.23-4V55.86A3.84,3.84,0,0,0,295.25,53.59ZM218.89,68.32H204V54.21h14.92Zm0-17.06H204V37.15h14.92Zm19.9,17.06H223.87V54.21h14.92Zm0-17.06H223.87V37.15h14.92Z"/><rect class="cls-3" x="145" y="138.68" width="4" height="43"/><path class="cls-4" d="M145,156.68V138.33h-6.14a12,12,0,0,0-12,12v6.35Z"/><path class="cls-4" d="M149,156.68h18.28v-6.35a12,12,0,0,0-12-12H149Z"/><polygon class="cls-4" points="145 160.68 126.86 160.68 126.86 162.2 126.86 181.86 145 181.86 145 160.68"/><polygon class="cls-4" points="149 160.68 149 181.86 167.28 181.86 167.28 162.2 167.28 160.68 149 160.68"/></g></g></svg>