<svg xmlns="http://www.w3.org/2000/svg" viewBox="0 0 296.07 158.35"><defs><style>.cls-1{fill:#fff;}</style></defs><g id="Layer_2" data-name="Layer 2"><g id="Layer_1-2" data-name="Layer 1"><path class="cls-1" d="M54.64.66c121.14,4.92,94-21.28,84.41,58.22-.06,11.55-2.49,28.42-17.31,23.43C98,78.47,73.5,83.21,51,74.48c-15.38-.83-31.92,2.74-46.33-3.84C-.2,55.67,4.52,36,3.53,19.55,4.62,13.66,1.77,4.19,5.61,0,21.86.14,38.67.3,54.64.66Z"/><path class="cls-1" d="M129.91,87.82c7.08-2.24-4.06,17.94-.46,24.44-.78,3.5-.86,6.92-1.63,10.8,10.18,9.25,25,11.84,36.42,20.58.88,3.83-2.94,8.39-2.83,11.76-52-.12-98.6.65-148.85,1-1.64-.9-15.56,2.45-12-5,.68-8.42.45-17.95,2-25.63-.47-7,.63-18.53.72-27.59l-.05.43c2.27-25.1-5.14-22.28,21.06-19.95C59.45,80.77,94.9,87.61,129.91,87.82Zm-86.67,68c.6.3,1.18.27,1.36-.06Z"/><path class="cls-1" d="M223.15,60.64c-9.53,65.15-5,36.88-47.5,71.14-4.31,11.39-15.47,3.4-22.86-.94-4.65-5.09-14.47-4.29-17.8-9.55,3.71-6.73-.42-12.51.08-19,2.35-10.85,6.31-20.44,9.46-31.08,1.59-19,2.81-37.09,7.67-55.54-2.29-14.14,32.46,4.15,37.66,7.51C213,23.92,220.51,40,223.15,60.64Z"/><path class="cls-1" d="M264.7,80.32c33.3,35.53,28,4.32,30.73,61.11-.9,4.74,3.25,16.12-2.35,16.92-40.71-2.08-86.91,1.77-126.29-4.51C186.49,104.83,238.86,123.65,264.7,80.32Z"/><path class="cls-1" d="M289.34,62.65c4.23,38.26,5.19,40.19-25.22,12.05-9.31-8.8-20.61-14.37-30.4-22.49.85-3.39,8.66-2.92,10.63-6.9,9.1-15.79,28.7-13,44.35-10.41C289.88,43.68,288.73,53.45,289.34,62.65Z"/><path class="cls-1" d="M266.32,1.73C266.27,11.67,234,57.92,224.7,47.5c-1.47-8.53-15.12-21.78-1-27C241.53,4,239.63-1.37,266.32,1.73Z"/><path class="cls-1" d="M227.33,56.08c.56-.17,1-.48.12-.5.94-4.18,10,6.45,11.85,7.84,6.71,4,12.82,8.81,19.33,13.34-15.4,27-13.07,20.54-40,31.18C223.31,91,226.64,73.69,227.33,56.08Z"/><path class="cls-1" d="M236.1,1.66c-6.69,8.54-17.95,14.41-23.39,23.2a87.31,87.31,0,0,0-14.34-4.39l.4-.32c-7.91-1.15-12.64-4.68-21.41-8.63-7.22-3.86-20.72-1.13-23.8-9.92C179.53.48,209.27,1.27,236.1,1.66Z"/><path class="cls-1" d="M271.58,1.4c17.81-2.18,21-.13,18.26,17.85.62,10.19-.36,13.63-11.13,9.71C241.1,26.44,259.91,41.17,271.58,1.4Z"/></g></g></svg>